<svg id="visual" viewBox="0 0 900 600" width="900" height="600" xmlns="http://www.w3.org/2000/svg" xmlns:xlink="http://www.w3.org/1999/xlink" version="1.1"><g stroke-width="1" stroke-linejoin="bevel"><path d="M400 277L309.5 391L395.5 348Z" fill="#00e0eb" stroke="#00e0eb"></path><path d="M400 277L266 394L309.5 391Z" fill="#00e0eb" stroke="#00e0eb"></path><path d="M266 394L289 435L309.5 391Z" fill="#00d0f9" stroke="#00d0f9"></path><path d="M408.5 469L446 398L395.5 348Z" fill="#00c3fe" stroke="#00c3fe"></path><path d="M408.5 469L395.5 348L309.5 391Z" fill="#00c9fc" stroke="#00c9fc"></path><path d="M395.5 348L446 398L400 277Z" fill="#17bcff" stroke="#17bcff"></path><path d="M402 154L363.5 159L400 277Z" fill="#17bcff" stroke="#17bcff"></path><path d="M400 277L153 266L266 394Z" fill="#00c3fe" stroke="#00c3fe"></path><path d="M598.5 187L402 154L400 277Z" fill="#00f0ba" stroke="#00f0ba"></path><path d="M231 144L153 266L400 277Z" fill="#00e5e3" stroke="#00e5e3"></path><path d="M156.5 577L247 600L289 435Z" fill="#00f0ba" stroke="#00f0ba"></path><path d="M289 435L408.5 469L309.5 391Z" fill="#00dbf1" stroke="#00dbf1"></path><path d="M242 104L231 144L363.5 159Z" fill="#00c3fe" stroke="#00c3fe"></path><path d="M363.5 159L231 144L400 277Z" fill="#00f0ba" stroke="#00f0ba"></path><path d="M402 154L369.5 122L363.5 159Z" fill="#00f0ba" stroke="#00f0ba"></path><path d="M369.5 122L242 104L363.5 159Z" fill="#00f0ba" stroke="#00f0ba"></path><path d="M129.5 125L60.5 276L153 266Z" fill="#00c3fe" stroke="#00c3fe"></path><path d="M382 600L464 500L408.5 469Z" fill="#00d0f9" stroke="#00d0f9"></path><path d="M408.5 469L464 500L446 398Z" fill="#00d5f6" stroke="#00d5f6"></path><path d="M60.5 276L71.5 342L153 266Z" fill="#00d5f6" stroke="#00d5f6"></path><path d="M153 266L71.5 342L266 394Z" fill="#00f0ba" stroke="#00f0ba"></path><path d="M402 154L393 62L369.5 122Z" fill="#00c9fc" stroke="#00c9fc"></path><path d="M369.5 122L346.5 0L242 104Z" fill="#00e5e3" stroke="#00e5e3"></path><path d="M573.5 111L393 62L402 154Z" fill="#00c9fc" stroke="#00c9fc"></path><path d="M596.5 368L400 277L446 398Z" fill="#00d0f9" stroke="#00d0f9"></path><path d="M129.5 125L153 266L231 144Z" fill="#00e9d8" stroke="#00e9d8"></path><path d="M242 104L129.5 125L231 144Z" fill="#00d5f6" stroke="#00d5f6"></path><path d="M235 0L129.5 125L242 104Z" fill="#00dbf1" stroke="#00dbf1"></path><path d="M60.5 276L45.5 356L71.5 342Z" fill="#17bcff" stroke="#17bcff"></path><path d="M156.5 577L289 435L266 394Z" fill="#17bcff" stroke="#17bcff"></path><path d="M289 435L382 600L408.5 469Z" fill="#00dbf1" stroke="#00dbf1"></path><path d="M601.5 426L596.5 368L446 398Z" fill="#00edca" stroke="#00edca"></path><path d="M247 600L268.5 600L289 435Z" fill="#00e5e3" stroke="#00e5e3"></path><path d="M268.5 600L382 600L289 435Z" fill="#00d5f6" stroke="#00d5f6"></path><path d="M464 500L601.5 426L446 398Z" fill="#00edca" stroke="#00edca"></path><path d="M382 600L525.5 529L464 500Z" fill="#00c3fe" stroke="#00c3fe"></path><path d="M156.5 577L266 394L71.5 342Z" fill="#00d5f6" stroke="#00d5f6"></path><path d="M596.5 368L598.5 187L400 277Z" fill="#00d0f9" stroke="#00d0f9"></path><path d="M525.5 529L601.5 426L464 500Z" fill="#00e5e3" stroke="#00e5e3"></path><path d="M596.5 368L624 180L598.5 187Z" fill="#00e0eb" stroke="#00e0eb"></path><path d="M434 0L346.5 0L393 62Z" fill="#00e0eb" stroke="#00e0eb"></path><path d="M393 62L346.5 0L369.5 122Z" fill="#17bcff" stroke="#17bcff"></path><path d="M0 484L156.5 577L71.5 342Z" fill="#00edca" stroke="#00edca"></path><path d="M598.5 187L573.5 111L402 154Z" fill="#00e0eb" stroke="#00e0eb"></path><path d="M346.5 0L235 0L242 104Z" fill="#00dbf1" stroke="#00dbf1"></path><path d="M573.5 111L434 0L393 62Z" fill="#00e0eb" stroke="#00e0eb"></path><path d="M598.5 187L624 180L573.5 111Z" fill="#00c3fe" stroke="#00c3fe"></path><path d="M708 378L624 180L596.5 368Z" fill="#00c3fe" stroke="#00c3fe"></path><path d="M0 185L0 220L60.5 276Z" fill="#00e9d8" stroke="#00e9d8"></path><path d="M60.5 276L0 220L45.5 356Z" fill="#00f0ba" stroke="#00f0ba"></path><path d="M0 185L60.5 276L129.5 125Z" fill="#00d0f9" stroke="#00d0f9"></path><path d="M0 220L0 404L45.5 356Z" fill="#00f0ba" stroke="#00f0ba"></path><path d="M45.5 356L0 484L71.5 342Z" fill="#00e9d8" stroke="#00e9d8"></path><path d="M0 147L0 185L129.5 125Z" fill="#00edca" stroke="#00edca"></path><path d="M0 484L119.5 600L156.5 577Z" fill="#00edca" stroke="#00edca"></path><path d="M156.5 577L119.5 600L247 600Z" fill="#00edca" stroke="#00edca"></path><path d="M0 0L0 147L129.5 125Z" fill="#00e5e3" stroke="#00e5e3"></path><path d="M0 404L0 484L45.5 356Z" fill="#00d0f9" stroke="#00d0f9"></path><path d="M525.5 529L659 457L601.5 426Z" fill="#00e9d8" stroke="#00e9d8"></path><path d="M601.5 426L708 378L596.5 368Z" fill="#17bcff" stroke="#17bcff"></path><path d="M235 0L109.5 0L129.5 125Z" fill="#00e0eb" stroke="#00e0eb"></path><path d="M382 600L575.5 600L525.5 529Z" fill="#00e0eb" stroke="#00e0eb"></path><path d="M525.5 529L575.5 600L659 457Z" fill="#00edca" stroke="#00edca"></path><path d="M823.5 416L708 378L659 457Z" fill="#00e9d8" stroke="#00e9d8"></path><path d="M659 457L708 378L601.5 426Z" fill="#00e9d8" stroke="#00e9d8"></path><path d="M573.5 111L580.5 0L434 0Z" fill="#00f0ba" stroke="#00f0ba"></path><path d="M680 67L580.5 0L573.5 111Z" fill="#00f0ba" stroke="#00f0ba"></path><path d="M680 67L573.5 111L624 180Z" fill="#00c9fc" stroke="#00c9fc"></path><path d="M749.5 142L680 67L624 180Z" fill="#00d0f9" stroke="#00d0f9"></path><path d="M0 484L0 600L119.5 600Z" fill="#00c9fc" stroke="#00c9fc"></path><path d="M575.5 600L644 600L659 457Z" fill="#00dbf1" stroke="#00dbf1"></path><path d="M109.5 0L0 0L129.5 125Z" fill="#00f0ba" stroke="#00f0ba"></path><path d="M817.5 321L749.5 142L624 180Z" fill="#00c9fc" stroke="#00c9fc"></path><path d="M740.5 0L688 0L680 67Z" fill="#00edca" stroke="#00edca"></path><path d="M680 67L688 0L580.5 0Z" fill="#00f0ba" stroke="#00f0ba"></path><path d="M644 600L731 576L659 457Z" fill="#00edca" stroke="#00edca"></path><path d="M708 378L817.5 321L624 180Z" fill="#00e5e3" stroke="#00e5e3"></path><path d="M731 576L742.5 562L659 457Z" fill="#00e5e3" stroke="#00e5e3"></path><path d="M823.5 416L817.5 321L708 378Z" fill="#00d5f6" stroke="#00d5f6"></path><path d="M742.5 562L823.5 416L659 457Z" fill="#00edca" stroke="#00edca"></path><path d="M831.5 126L740.5 0L749.5 142Z" fill="#00c3fe" stroke="#00c3fe"></path><path d="M749.5 142L740.5 0L680 67Z" fill="#00d0f9" stroke="#00d0f9"></path><path d="M900 226L831.5 126L749.5 142Z" fill="#00d5f6" stroke="#00d5f6"></path><path d="M900 226L749.5 142L817.5 321Z" fill="#00dbf1" stroke="#00dbf1"></path><path d="M742.5 562L900 473L823.5 416Z" fill="#00e0eb" stroke="#00e0eb"></path><path d="M731 576L812.5 600L742.5 562Z" fill="#00e5e3" stroke="#00e5e3"></path><path d="M644 600L812.5 600L731 576Z" fill="#00e5e3" stroke="#00e5e3"></path><path d="M900 439L900 318L823.5 416Z" fill="#00e5e3" stroke="#00e5e3"></path><path d="M823.5 416L900 318L817.5 321Z" fill="#00d5f6" stroke="#00d5f6"></path><path d="M900 318L900 226L817.5 321Z" fill="#00e0eb" stroke="#00e0eb"></path><path d="M900 473L900 439L823.5 416Z" fill="#00c9fc" stroke="#00c9fc"></path><path d="M900 226L900 158L831.5 126Z" fill="#00dbf1" stroke="#00dbf1"></path><path d="M831.5 126L900 0L740.5 0Z" fill="#00c9fc" stroke="#00c9fc"></path><path d="M812.5 600L900 473L742.5 562Z" fill="#00e5e3" stroke="#00e5e3"></path><path d="M812.5 600L900 600L900 473Z" fill="#00e9d8" stroke="#00e9d8"></path><path d="M900 158L900 0L831.5 126Z" fill="#00d5f6" stroke="#00d5f6"></path></g></svg>